<mxfile host="app.diagrams.net" modified="2021-08-22T09:10:12.072Z" agent="5.0 (Macintosh; Intel Mac OS X 10_15_7) AppleWebKit/537.36 (KHTML, like Gecko) Chrome/92.0.4515.107 Safari/537.36" etag="bD40QM1JebYnPZnqW8uw" version="14.9.5" type="github">
  <diagram id="pwbNoHP7_j0jvLBLR8bo" name="Page-1">
    <mxGraphModel dx="773" dy="637" grid="1" gridSize="10" guides="1" tooltips="1" connect="1" arrows="1" fold="1" page="1" pageScale="1" pageWidth="827" pageHeight="1169" math="0" shadow="0">
      <root>
        <mxCell id="0" />
        <mxCell id="1" parent="0" />
        <mxCell id="_ylJuCQ_qFCrLB2VPD52-7" style="edgeStyle=orthogonalEdgeStyle;rounded=0;orthogonalLoop=1;jettySize=auto;html=1;strokeColor=#006658;fontColor=#5C5C5C;" edge="1" parent="1" source="_ylJuCQ_qFCrLB2VPD52-2" target="_ylJuCQ_qFCrLB2VPD52-4">
          <mxGeometry relative="1" as="geometry">
            <Array as="points">
              <mxPoint x="180" y="130" />
              <mxPoint x="180" y="130" />
            </Array>
          </mxGeometry>
        </mxCell>
        <mxCell id="_ylJuCQ_qFCrLB2VPD52-2" value="행위자" style="rounded=1;whiteSpace=wrap;html=1;fillColor=#21C0A5;strokeColor=#006658;fontColor=#5C5C5C;" vertex="1" parent="1">
          <mxGeometry x="20" y="120" width="120" height="320" as="geometry" />
        </mxCell>
        <mxCell id="_ylJuCQ_qFCrLB2VPD52-4" value="시스템" style="rounded=1;whiteSpace=wrap;html=1;fillColor=#21C0A5;strokeColor=#006658;fontColor=#5C5C5C;" vertex="1" parent="1">
          <mxGeometry x="690" y="115" width="120" height="330" as="geometry" />
        </mxCell>
        <mxCell id="_ylJuCQ_qFCrLB2VPD52-8" value="1. 아이디, 닉네임, 비밀번호, 이메일 입력 및 중복검사 후 제출" style="text;html=1;strokeColor=none;fillColor=none;align=center;verticalAlign=middle;whiteSpace=wrap;rounded=0;sketch=0;fontColor=#5C5C5C;" vertex="1" parent="1">
          <mxGeometry x="192" y="140" width="458" height="20" as="geometry" />
        </mxCell>
        <mxCell id="_ylJuCQ_qFCrLB2VPD52-15" value="" style="endArrow=classic;html=1;fontColor=#5C5C5C;strokeColor=#006658;fillColor=#21C0A5;entryX=1;entryY=0.25;entryDx=0;entryDy=0;exitX=0;exitY=0.25;exitDx=0;exitDy=0;" edge="1" parent="1" source="_ylJuCQ_qFCrLB2VPD52-4" target="_ylJuCQ_qFCrLB2VPD52-2">
          <mxGeometry width="50" height="50" relative="1" as="geometry">
            <mxPoint x="279" y="200" as="sourcePoint" />
            <mxPoint x="210" y="280" as="targetPoint" />
          </mxGeometry>
        </mxCell>
        <mxCell id="_ylJuCQ_qFCrLB2VPD52-16" value="2 - 1. 입력받은 아이디와 닉네임, 이메일 형식이 올바른지 확인 후 형식이 올바르면 데이터를 json 형식으로 서버에 전송&lt;br&gt;서버에 성공적으로 전송되면 &#39;회원가입이 완료되었습니다.&#39; 라는 메세지 출력&lt;br&gt;유스케이스를 종료" style="text;html=1;strokeColor=none;fillColor=none;align=center;verticalAlign=middle;whiteSpace=wrap;rounded=0;sketch=0;fontColor=#5C5C5C;" vertex="1" parent="1">
          <mxGeometry x="164" y="220" width="500" height="20" as="geometry" />
        </mxCell>
        <mxCell id="_ylJuCQ_qFCrLB2VPD52-17" value="" style="endArrow=classic;html=1;fontColor=#5C5C5C;strokeColor=#006658;fillColor=#21C0A5;exitX=0;exitY=0.5;exitDx=0;exitDy=0;" edge="1" parent="1" source="_ylJuCQ_qFCrLB2VPD52-4" target="_ylJuCQ_qFCrLB2VPD52-2">
          <mxGeometry width="50" height="50" relative="1" as="geometry">
            <mxPoint x="580" y="360" as="sourcePoint" />
            <mxPoint x="630" y="310" as="targetPoint" />
          </mxGeometry>
        </mxCell>
        <mxCell id="_ylJuCQ_qFCrLB2VPD52-19" value="2 - 2. 입력받은 아이디와 닉네임, 이메일 형식이 올바르지 않으면 올바르지 않은 형식에 대해 &#39;형식이 올바르지 않습니다.&#39; 라고 메세지 출력&lt;br&gt;그 후 1번 과정으로 다시 돌아간다." style="text;html=1;strokeColor=none;fillColor=none;align=center;verticalAlign=middle;whiteSpace=wrap;rounded=0;sketch=0;fontColor=#5C5C5C;" vertex="1" parent="1">
          <mxGeometry x="163" y="299" width="500" height="20" as="geometry" />
        </mxCell>
      </root>
    </mxGraphModel>
  </diagram>
</mxfile>
